<svg width="54" height="54" viewBox="0 0 54 54" fill="none" xmlns="http://www.w3.org/2000/svg">
<g clip-path="url(#clip0_1_400)">
<path d="M46.5606 8.91695L22.7307 3.09103C19.6983 2.34969 16.6275 4.21021 15.8852 7.23851L8.25659 38.3594C7.44679 41.663 9.47918 45.0085 12.7871 45.8173L36.1171 51.521C36.8534 51.701 37.5964 51.2508 37.7766 50.5155C37.9569 49.7803 37.5062 49.0382 36.7698 48.8582L13.4398 43.1545C11.6021 42.7052 10.473 40.8466 10.9229 39.0113C11.3728 37.176 13.2339 36.0484 15.0716 36.4976L38.4016 42.2013C39.1379 42.3814 39.8809 41.9311 40.0611 41.1959L47.5674 10.5742C47.7476 9.839 47.2969 9.09696 46.5606 8.91695ZM12.3215 33.3056L18.5515 7.89036C18.9345 6.32782 20.5133 5.37126 22.0779 5.75378L22.1613 5.77415C22.3913 5.83039 22.5322 6.06231 22.4759 6.29205L15.823 33.4325C15.7696 33.6501 15.557 33.7922 15.3362 33.753C14.4828 33.601 13.6334 33.6342 12.8323 33.8252C12.5225 33.8991 12.2458 33.6144 12.3215 33.3056Z" fill="#3491E7"/>
<path d="M37.9116 44.1981L14.5816 38.4944C13.8452 38.3144 13.1023 38.7646 12.9221 39.4998C12.7418 40.2351 13.1925 40.9771 13.9288 41.1571L37.2588 46.8608C37.9952 47.0408 38.7381 46.5906 38.9183 45.8554C39.0986 45.1201 38.6479 44.3781 37.9116 44.1981Z" fill="#3491E7"/>
</g>
<defs>
<clipPath id="clip0_1_400">
<rect width="43.917" height="43.8653" fill="white" transform="matrix(0.971391 0.237485 -0.23808 0.971246 11.2317 0.279785)"/>
</clipPath>
</defs>
</svg>
